PathFileType	4	(X/Y/Z)	C:\Users\Basilio\Documents\Thesis Gigler\squatting_fais\c3dfiles\040\SLS_pre_front3\markers_experimental.trc
DataRate	CameraRate	NumFrames	NumMarkers	Units	OrigDataRate	OrigDataStartFrame	OrigNumFrames
200.000000	200.000000	4	62	mm	200.000000	697	1116
Frame#	Time	FHD			LBHD			RBHD			C7			T10			CLAV			LSHO			LUUPA			LMUPA			LDUPA			LLEP			LMEP			LRAD			LUL			LRFIN			RSHO			RUPA1			RMUPA			RDUPA			RLEP			RMEP			RRAD			RUL			RUFIN			LASI			RASI			USACR			LSACR			RSACR			LTHI1			LTHI2			LTHI3			LTHI4			LLFC			LMFC			LTIB1			LTIB2			LTIB3			LTIB4			LLMAL			LMMAL			LHEE			LMT1			LMT2			LMT5			RTHI			RTHI2			RTHI3			RTHI4			RLFC			RMFC			RTIB1			RTIB2			RTIB3			RTIB4			RLMAL			RMMAL			RHEE			RMT1			RMT2			RMT5			*61			
		X1	Y1	Z1	X2	Y2	Z2	X3	Y3	Z3	X4	Y4	Z4	X5	Y5	Z5	X6	Y6	Z6	X7	Y7	Z7	X8	Y8	Z8	X9	Y9	Z9	X10	Y10	Z10	X11	Y11	Z11	X12	Y12	Z12	X13	Y13	Z13	X14	Y14	Z14	X15	Y15	Z15	X16	Y16	Z16	X17	Y17	Z17	X18	Y18	Z18	X19	Y19	Z19	X20	Y20	Z20	X21	Y21	Z21	X22	Y22	Z22	X23	Y23	Z23	X24	Y24	Z24	X25	Y25	Z25	X26	Y26	Z26	X27	Y27	Z27	X28	Y28	Z28	X29	Y29	Z29	X30	Y30	Z30	X31	Y31	Z31	X32	Y32	Z32	X33	Y33	Z33	X34	Y34	Z34	X35	Y35	Z35	X36	Y36	Z36	X37	Y37	Z37	X38	Y38	Z38	X39	Y39	Z39	X40	Y40	Z40	X41	Y41	Z41	X42	Y42	Z42	X43	Y43	Z43	X44	Y44	Z44	X45	Y45	Z45	X46	Y46	Z46	X47	Y47	Z47	X48	Y48	Z48	X49	Y49	Z49	X50	Y50	Z50	X51	Y51	Z51	X52	Y52	Z52	X53	Y53	Z53	X54	Y54	Z54	X55	Y55	Z55	X56	Y56	Z56	X57	Y57	Z57	X58	Y58	Z58	X59	Y59	Z59	X60	Y60	Z60	X61	Y61	Z61	X62	Y62	Z62	

698	3.485	-229.4336853027344	1777.757202148438	-1139.2548828125	-351.5235290527344	1726.832397460938	-1186.31640625	-407.6730957031251	1682.52783203125	-1057.931884765625	-401.2099609375001	1556.9560546875	-1109.014038085938	-428.1752319335939	1242.056518554688	-1099.867919921875	-271.3586730957032	1501.154296875	-1119.1943359375	-322.8823242187501	1561.396606445313	-1258.175659179688	-157.1007385253907	1520.826538085938	-1327.117309570313	-130.4044647216797	1534.212768554688	-1287.241088867188	-88.99761962890626	1510.825317382813	-1324.93896484375	-31.27867507934571	1485.676025390625	-1322.4609375	-44.5199089050293	1430.910034179688	-1288.686157226563	nan	nan	nan	238.4254302978516	1520.79541015625	-1255.319580078125	308.4030456542969	1511.7734375	-1162.764526367188	-294.3117675781251	1539.89111328125	-975.280212402344	-128.5405578613282	1476.484619140625	-914.9229736328127	-103.5324172973633	1502.226440429688	-948.8731079101565	-62.90987014770509	1461.943481445313	-928.4860839843752	-2.308951854705811	1455.330200195313	-945.6437988281252	-16.1460247039795	1400.62060546875	-997.4238891601565	243.737289428711	1523.420654296875	-1098.813598632813	258.9844970703126	1496.86181640625	-1026.761108398438	345.0126953125001	1519.010620117188	-1097.96826171875	-259.0552368164063	1054.945678710938	-1200.373901367188	-251.3318481445313	1078.61767578125	-975.5759277343752	-440.8644104003907	1106.03271484375	-1079.377807617188	-448.9984130859376	1073.787963867188	-1103.626220703125	-447.3556213378907	1078.894775390625	-1047.078979492188	-341.5246887207032	784.919860839844	-1228.270751953125	-288.9417114257813	717.7720336914064	-1235.349243164063	-246.3750610351563	730.4019775390626	-1248.545654296875	-296.2369995117188	663.2667236328126	-1215.761352539063	-248.7132110595704	539.2870483398439	-1204.317138671875	-236.7498779296876	534.5688476562501	-1074.270629882813	-232.2019958496094	316.3309020996094	-1138.823486328125	-311.7829589843751	289.2528686523438	-1167.118408203125	-271.3871459960938	275.1438598632813	-1156.91796875	-272.2666931152344	200.2412567138672	-1111.907348632813	-353.4010620117188	125.4520416259766	-1108.9248046875	-312.3468627929688	143.2232666015625	-1032.121215820313	-413.1445922851564	97.93948364257815	-1049.477172851563	-199.8031005859376	57.02996063232423	-1051.307250976563	-205.8536987304688	49.07667922973634	-1096.821655273438	-261.5477905273438	35.7010612487793	-1138.418212890625	-226.4051971435547	826.5621337890627	-888.1294555664065	-174.827880859375	786.506286621094	-895.9168701171877	-146.6455230712891	798.2745361328127	-906.5486450195315	-176.435287475586	703.4293212890626	-905.7092285156252	-121.2629547119141	579.9985961914064	-918.1331176757815	-117.2323608398438	574.4788818359376	-1053.76513671875	-0.2117282301187516	431.7899780273439	-943.6665039062502	-33.19758224487305	331.0202026367188	-920.550231933594	9.723677635192873	346.0835266113282	-929.1668701171877	44.3141212463379	312.0506896972657	-963.2008056640627	44.90705871582032	186.690902709961	-943.0307617187502	57.18520355224611	206.9137268066407	-1029.051879882813	3.956787586212159	121.5351333618164	-998.2988891601565	214.6394500732422	191.7398986816407	-1008.064270019531	208.5775146484376	194.7334747314454	-967.8484497070315	179.5119018554688	155.8982238769532	-917.277526855469	nan	nan	nan	
699	3.49	-230.0093231201172	1778.926391601563	-1139.213134765625	-351.9058532714844	1728.089477539063	-1186.239379882813	-408.3132629394532	1683.781127929688	-1057.933471679688	-402.0765380859376	1557.965087890625	-1109.1171875	-428.0996398925782	1242.561401367188	-1100.30712890625	-272.2659606933594	1502.284301757813	-1119.17041015625	-323.3581848144532	1562.3466796875	-1258.195190429688	-157.643783569336	1521.94091796875	-1327.113159179688	-130.8002624511719	1535.063720703125	-1287.235107421875	-89.56675720214845	1511.770751953125	-1324.870239257813	-31.83148574829102	1486.579711914063	-1322.488403320313	-45.04118728637696	1431.902099609375	-1288.616333007813	nan	nan	nan	237.9231567382813	1521.40673828125	-1255.067260742188	307.7767028808594	1512.878662109375	-1162.71044921875	-295.0088195800782	1541.162109375	-975.127136230469	-129.1066589355469	1477.782470703125	-915.073913574219	-104.1109619140625	1503.19091796875	-948.7504882812502	-63.4739456176758	1463.08251953125	-928.3465576171877	-2.650908946990967	1455.57470703125	-945.466491699219	-16.88704490661621	1401.807250976563	-997.2337646484377	243.2683868408204	1524.52392578125	-1098.551513671875	258.7007446289063	1497.986938476563	-1026.427490234375	344.3367614746094	1520.094360351563	-1097.303344726563	-257.9488525390626	1056.363159179688	-1200.82421875	-250.2971801757813	1080.126586914063	-975.4448242187502	-440.0179748535157	1106.94189453125	-1079.77099609375	-447.8502502441407	1074.674926757813	-1104.057006835938	-446.2996520996095	1079.553344726563	-1047.64599609375	-340.8688049316407	786.1353149414065	-1228.209838867188	-288.8785705566407	718.9562377929689	-1234.710327148438	-245.9316558837891	731.3411865234376	-1247.9853515625	-296.4934997558594	664.3035278320314	-1215.43115234375	-249.6171112060547	539.9569091796876	-1203.584350585938	-237.7372283935547	535.0019531250001	-1073.364013671875	-232.729965209961	316.9438171386719	-1138.580688476563	-312.1878662109376	289.6451721191407	-1166.937866210938	-271.7438049316407	275.6116027832032	-1156.735229492188	-272.7344360351563	201.2191467285157	-1111.874633789063	-353.3454284667969	125.5544586181641	-1108.920532226563	-312.4238586425782	143.33740234375	-1032.15673828125	-413.1148986816407	97.7695007324219	-1049.441772460938	-199.7601623535157	57.01230239868165	-1051.273193359375	-205.8360290527344	49.09815216064455	-1096.78515625	-261.4591064453126	35.69269180297852	-1138.342407226563	-226.0265045166016	827.2398071289065	-888.133483886719	-174.294677734375	787.1203613281252	-895.9353637695315	-145.8319244384766	799.169128417969	-906.8584594726565	-175.8046112060547	703.8972778320314	-905.9499511718752	-121.0501022338867	580.4732666015626	-918.1918945312502	-116.7033386230469	575.1600341796876	-1053.977172851563	-0.6072440147399903	432.1048889160157	-943.6225585937502	-33.66381072998048	331.3587951660157	-920.4147949218752	9.125325202941896	346.4178466796876	-929.042419433594	43.90774536132813	312.2577209472657	-963.219909667969	44.18984985351563	187.1656951904297	-943.027770996094	56.3998374938965	207.178939819336	-1028.977416992188	3.328600645065309	122.0838165283203	-998.426208496094	213.3822326660157	191.6753540039063	-1007.963134765625	207.9626007080079	194.5237274169922	-967.6748046875002	178.9469757080078	155.8534545898438	-917.0032958984377	nan	nan	nan	
700	3.495	-230.3472747802735	1779.736206054688	-1138.970947265625	-352.2103271484376	1728.931884765625	-1186.281372070313	-408.9734802246095	1684.768676757813	-1057.958129882813	-402.7031555175782	1558.950561523438	-1109.02685546875	-427.3901367187501	1243.4052734375	-1100.518188476563	-272.6501159667969	1503.626831054688	-1119.184448242188	-324.1205139160157	1563.637084960938	-1258.322509765625	-157.9981079101563	1522.962158203125	-1327.260009765625	-131.3588256835938	1536.036987304688	-1287.2998046875	-89.93163299560548	1512.64794921875	-1324.952880859375	-32.36567306518555	1487.473999023438	-1322.401611328125	-45.39815902709962	1432.772583007813	-1288.611083984375	nan	nan	nan	237.4868164062501	1522.26416015625	-1254.9453125	307.6182250976563	1513.754760742188	-1162.439575195313	-295.7810974121094	1542.202758789063	-975.0449829101565	-129.7834777832032	1478.86181640625	-914.7211914062502	-104.7115631103516	1504.237670898438	-948.6426391601565	-63.50464248657228	1464.551879882813	-927.2618408203127	-3.097214221954347	1456.301635742188	-945.1164550781252	-17.12580108642578	1402.84130859375	-997.380065917969	242.737289428711	1525.678588867188	-1098.15576171875	258.2532958984376	1499.276245117188	-1026.326782226563	344.0768737792969	1521.307250976563	-1097.161376953125	-256.7750244140626	1057.829956054688	-1200.985595703125	-249.2518463134766	1081.34423828125	-975.8482055664065	-438.8728637695314	1107.471557617188	-1080.1416015625	-446.5492553710939	1075.23486328125	-1104.46240234375	-445.3038024902345	1080.34619140625	-1047.943603515625	-340.3926086425782	787.3408813476565	-1228.20654296875	-288.8089599609376	720.0275878906251	-1234.48095703125	-245.9542999267579	732.2528686523439	-1247.075317382813	-296.8406372070313	665.4443359375001	-1215.275268554688	-250.6922760009766	540.7575683593751	-1202.923583984375	-239.1555938720704	535.8190307617189	-1072.836669921875	-233.8696441650391	317.5819702148438	-1137.783813476563	-312.6496276855469	289.9397583007813	-1166.745849609375	-272.0451354980469	276.1944580078126	-1156.46533203125	-272.8709106445313	201.4507751464844	-1111.68017578125	-353.4538269042969	125.6993484497071	-1108.966796875	-312.5635681152344	143.5949859619141	-1032.228881835938	-413.1804809570314	98.02832031250003	-1049.546997070313	-199.8427276611329	57.03036117553712	-1051.162719726563	-205.8464660644532	48.95272445678712	-1096.677124023438	-261.4598083496094	35.70326614379884	-1138.328369140625	-225.3263549804688	828.2395019531252	-888.2050781250002	-173.4550476074219	787.545104980469	-896.0256347656252	-145.1931457519532	799.7356567382815	-906.9739379882815	-175.4187927246094	704.2778930664064	-906.0512695312502	-120.8789825439453	580.9914550781251	-918.2197875976565	-116.2598495483399	575.6632690429689	-1054.168090820313	-0.8326020240783694	432.2518310546876	-943.6857910156252	-34.54819488525391	332.4545898437501	-919.7098388671877	8.565741539001467	346.8217773437501	-929.450866699219	43.52085876464844	312.2357482910157	-963.2546997070315	43.43432235717774	187.2476501464844	-942.9696044921877	55.75075912475587	207.3908233642579	-1028.99609375	2.43969750404358	122.2879714965821	-998.411315917969	212.9091491699219	191.4551391601563	-1007.824462890625	207.3872985839844	194.3040924072266	-967.5041503906252	177.9690399169922	155.6712493896485	-916.763854980469	nan	nan	nan	
701	3.5	-230.8210754394532	1780.7119140625	-1138.9443359375	-353.3138732910157	1730.427612304688	-1186.236083984375	-409.6387329101564	1685.854614257813	-1057.958984375	-403.6072387695314	1560.123657226563	-1108.99462890625	-426.9136047363282	1244.11865234375	-1100.901123046875	-273.1554260253907	1504.960693359375	-1119.235595703125	-324.7351074218751	1564.622192382813	-1258.315795898438	-158.3999633789063	1523.729125976563	-1327.177734375	-131.8026428222657	1537.1298828125	-1287.355102539063	-90.35341644287111	1513.63037109375	-1324.92041015625	-32.32823562622071	1488.231811523438	-1322.270874023438	-45.84872055053712	1433.784423828125	-1288.565063476563	nan	nan	nan	237.107406616211	1522.976928710938	-1254.95849609375	307.0232849121094	1514.568969726563	-1162.277099609375	-296.2547912597657	1543.160400390625	-975.080993652344	-130.2445068359375	1479.658325195313	-914.6118164062502	-105.2700424194336	1505.384521484375	-948.5126953125002	-63.78564453125001	1465.487426757813	-927.251892089844	-3.711312055587769	1457.468383789063	-945.0252075195315	-17.7907829284668	1403.63720703125	-996.8710937500002	242.0782165527344	1526.881958007813	-1097.817749023438	257.4610595703126	1500.289184570313	-1025.983276367188	343.2900390625001	1522.650146484375	-1096.738403320313	-255.3210754394532	1059.050048828125	-1201.174560546875	-248.3172607421876	1082.609619140625	-976.1995239257815	-437.8372497558595	1108.218872070313	-1080.443237304688	-445.332000732422	1075.980590820313	-1104.837768554688	-444.1071777343751	1080.97802734375	-1048.324462890625	-340.0914306640626	788.7124023437502	-1228.223876953125	-288.6259765625001	720.9362792968751	-1234.088012695313	-245.4171447753907	732.7453002929689	-1246.301513671875	-296.9213867187501	666.1666259765626	-1214.969482421875	-251.2650756835938	541.0255737304689	-1202.60205078125	-240.5155029296876	536.5050048828126	-1072.187744140625	-234.398666381836	318.9764709472657	-1137.562866210938	-313.2724914550782	290.3828125000001	-1166.41943359375	-272.6154785156251	276.6481628417969	-1156.227416992188	-272.8735351562501	201.5215454101563	-1111.3701171875	-353.4927062988282	125.7871398925782	-1108.973266601563	-312.6139831542969	143.7313995361328	-1032.3671875	-413.2246704101564	98.01283264160159	-1049.557739257813	-199.8319702148438	57.02907562255861	-1051.162475585938	-205.7920989990235	48.99438476562501	-1096.661865234375	-261.5247802734376	35.72724533081055	-1138.3017578125	-224.5773925781251	829.0731201171877	-888.234313964844	-173.2607879638672	787.923278808594	-896.474060058594	-144.6077880859375	800.2999267578127	-906.9668579101565	-174.988021850586	704.7712402343751	-906.2517089843752	-120.8892898559571	581.4780883789064	-918.326599121094	-116.8618774414063	576.3983764648439	-1054.138305664063	-1.012685298919678	432.4311523437501	-943.672546386719	-34.65010833740235	332.3767700195313	-919.9320068359377	8.297586441040041	346.9787292480469	-929.518981933594	42.59678268432618	312.4509887695313	-963.1961669921877	42.80651092529298	187.4310150146485	-943.091247558594	55.09284973144533	207.6232452392579	-1028.915283203125	1.513658404350281	122.3884658813477	-998.4839477539065	212.4902343750001	191.1550445556641	-1007.705871582031	206.8006744384766	194.0350646972657	-967.341491699219	177.4414367675782	155.2299957275391	-916.7971191406252	nan	nan	nan	
